<svg height="512" viewBox="0 0 64 64" width="512" xmlns="http://www.w3.org/2000/svg"><path d="m61.924 40.617a1 1 0 0 0 -.924-.617h-8.41a42.134 42.134 0 0 0 -4.905-10.278c-3.465-5.249-7.509-8.702-11.685-10.064v-1.658a4 4 0 0 0 -8 0v1.677c-7.477 2.494-13.812 11.541-16.579 20.323h-3.421a6.006 6.006 0 0 0 -6 6v7a1 1 0 0 0 1 1h7.586l2 2h-9.586a1 1 0 0 0 -.895 1.447l2 4a1 1 0 0 0 .895.553h54a1 1 0 0 0 .9-.553l2-4a1 1 0 0 0 -.9-1.447h-10.542a8.342 8.342 0 0 0 1.924-2h3.618a6.006 6.006 0 0 0 6-6v-7h-.009a1 1 0 0 0 -.067-.383zm-3.338 1.383-4.643 4.643a26.921 26.921 0 0 0 -.784-4.643zm-28.586-24a2 2 0 0 1 4 0v1.167a12.371 12.371 0 0 0 -2-.167 12.057 12.057 0 0 0 -2 .175zm-26 28a4 4 0 0 1 4-4h2.54a5.969 5.969 0 0 0 -1.54 4v2h2v-2a4 4 0 0 1 4-4h1.465a3.8 3.8 0 0 0 -.465 1.83v4.17a4 4 0 0 1 -4 4h-8zm9.275 7.861a6.009 6.009 0 0 0 4.725-5.861v-4.17a1.816 1.816 0 0 1 .537-1.293 1.876 1.876 0 0 1 2.586 0l13.463 13.463h-19.172zm45.107 6.139h-52.764l-1-2h54.764zm-12.6-4h-8.368l-14.877-14.877a3.857 3.857 0 0 0 -2.537-1.123h-4-1-.045-1.431c3.141-9.436 10.439-19 18.476-19 6.554 0 11.594 6.154 14.016 9.823 3.584 5.424 5.984 12.326 5.984 17.177 0 4.355-1.923 6.826-6.223 8zm10.218-4h-2.621a10.988 10.988 0 0 0 .54-2.505l6.081-6.081v4.586a4 4 0 0 1 -4 4z"/><path d="m36.465 24.2-.93 1.77c3.9 2.053 8.04 7.4 10.537 13.624l1.856-.744c-2.119-5.289-6.243-11.912-11.463-14.65z"/><path d="m46.714 41.322c.221.65.417 1.3.585 1.934l1.933-.512c-.179-.678-.389-1.373-.626-2.066z"/><path d="m15 4v2h-2v2h2v2h2v-2h2v-2h-2v-2z"/><path d="m3 27h2v2h2v-2h2v-2h-2v-2h-2v2h-2z"/><path d="m56 21v2h-2v2h2v2h2v-2h2v-2h-2v-2z"/><path d="m44 2v2h-2v2h2v2h2v-2h2v-2h-2v-2z"/><path d="m3 8h2v2h-2z"/><path d="m17 18h2v2h-2z"/><path d="m31 4h2v2h-2z"/><path d="m45 14h2v2h-2z"/><path d="m58 6h2v2h-2z"/></svg>